<?xml version="1.0" standalone="no"?>
<!DOCTYPE svg PUBLIC "-//W3C//DTD SVG 1.1//EN" "http://www.w3.org/Graphics/SVG/1.1/DTD/svg11.dtd" >
<svg xmlns="http://www.w3.org/2000/svg" xmlns:xlink="http://www.w3.org/1999/xlink" version="1.1" id="Layer_1" x="0px" y="0px" width="612px" height="602.174px" viewBox="0 65.326 612 602.174" enable-background="new 0 65.326 612 502.174" xml:space="preserve" xmlns:xml="http://www.w3.org/XML/1998/namespace">
<path d="M33 0v666h265v-666h-265zM66 33h199v600h-199v-600z M86 -150q-28 0 -49.5 21t-21.5 50v715q0 28 21.5 49.5t49.5 21.5h72v54q0 37 26 63t63 26h36q37 0 63 -26t26 -63v-54h214v54q0 37 26.5 63t63.5 26h35q37 0 63.5 -26t26.5 -63v-54h71q29 0 50.5 -21.5t21.5 -49.5v-715q0 -28 -21.5 -49.5t-50.5 -21.5h-786zM247 -79v161
h-161v-161h161zM247 118v178h-161v-178h161zM247 332v161h-161v-161h161zM229 600q0 -8 5.5 -13t12.5 -5h36q7 0 12.5 5t5.5 13v161q0 7 -5.5 12.5t-12.5 5.5h-36q-7 0 -12.5 -5.5t-5.5 -12.5v-161zM461 -79v161h-178v-161h178zM461 118v178h-178v-178h178zM461 332v161
h-178v-161h178zM676 -79v161h-179v-161h179zM676 118v178h-179v-178h179zM676 332v161h-179v-161h179zM658 600q0 -8 5 -13t13 -5h35q7 0 12.5 5t5.5 13v161q0 7 -5.5 12.5t-12.5 5.5h-35q-8 0 -13 -5.5t-5 -12.5v-161zM872 -79v161h-161v-161h161zM872 118v178h-161v-178
h161zM711 332h161v161h-161v-161z" />
</svg>
